<svg xmlns="http://www.w3.org/2000/svg" data-name="Layer 1" viewBox="0 0 128 160" x="0px" y="0px"><path d="M21.0274,62.12469V115.396a4.99464,4.99464,0,0,0,4.99463,4.99463H50.38318V94.447a7.98447,7.98447,0,0,1,5.82294-7.65393A27.70345,27.70345,0,0,1,71.79388,86.793,7.98454,7.98454,0,0,1,77.61682,94.447v25.94367H101.978a4.99458,4.99458,0,0,0,4.99457-4.99457V62.12469L64,34.91937Z"/><path d="M122.63666,44.33936l-14.77985-9.35627V9.73145a2.12207,2.12207,0,0,0-2.12213-2.12207H93.00208a2.12211,2.12211,0,0,0-2.12214,2.12207V24.236L65.13507,7.93842a2.122,2.122,0,0,0-2.27014,0L5.36334,44.33936a6.75115,6.75115,0,1,0,7.22205,11.4085L64,23.20026l51.41461,32.5476a6.75115,6.75115,0,1,0,7.22205-11.4085Z"/><text x="0" y="143" fill="#000000" font-size="5px" font-weight="bold" font-family="'Helvetica Neue', Helvetica, Arial-Unicode, Arial, Sans-serif">Created by Delwar Hossain</text><text x="0" y="148" fill="#000000" font-size="5px" font-weight="bold" font-family="'Helvetica Neue', Helvetica, Arial-Unicode, Arial, Sans-serif">from the Noun Project</text></svg>