<svg xmlns="http://www.w3.org/2000/svg" data-name="Layer 1" viewBox="0 0 64 80" x="0px" y="0px"><title>Untitled-1</title><path d="M51.5,27.07h-3a1.07,1.07,0,0,1-1-.71Q47.26,25.68,47,25a1.07,1.07,0,0,1,.21-1.21l2.11-2.11a1.07,1.07,0,0,0,0-1.52l-5.45-5.45a1.07,1.07,0,0,0-1.52,0l-2.11,2.11A1.07,1.07,0,0,1,39,17q-.66-.31-1.35-.56a1.07,1.07,0,0,1-.71-1v-3a1.07,1.07,0,0,0-1.07-1.07H28.14a1.07,1.07,0,0,0-1.07,1.07v3a1.07,1.07,0,0,1-.71,1q-.69.25-1.35.56a1.07,1.07,0,0,1-1.21-.21L21.7,14.73a1.07,1.07,0,0,0-1.52,0l-5.45,5.45a1.07,1.07,0,0,0,0,1.52l2.11,2.11A1.07,1.07,0,0,1,17,25q-.31.66-.56,1.35a1.07,1.07,0,0,1-1,.71h-3a1.07,1.07,0,0,0-1.07,1.07v7.71a1.07,1.07,0,0,0,1.07,1.07h3a1.07,1.07,0,0,1,1,.71q.25.69.56,1.35a1.07,1.07,0,0,1-.21,1.21L14.73,42.3a1.07,1.07,0,0,0,0,1.52l5.45,5.45a1.07,1.07,0,0,0,1.52,0l2.11-2.11A1.07,1.07,0,0,1,25,47q.66.31,1.35.56a1.07,1.07,0,0,1,.71,1v3a1.07,1.07,0,0,0,1.07,1.07h7.71a1.07,1.07,0,0,0,1.07-1.07v-3a1.07,1.07,0,0,1,.71-1q.69-.25,1.35-.56a1.07,1.07,0,0,1,1.21.21l2.11,2.11a1.07,1.07,0,0,0,1.52,0l5.45-5.45a1.07,1.07,0,0,0,0-1.52l-2.11-2.11A1.07,1.07,0,0,1,47,39q.31-.66.56-1.35a1.07,1.07,0,0,1,1-.71h3a1.07,1.07,0,0,0,1.07-1.07V28.14A1.07,1.07,0,0,0,51.5,27.07ZM32,45.77A13.77,13.77,0,1,1,45.77,32,13.77,13.77,0,0,1,32,45.77Z"/><path d="M32,23.87A8.13,8.13,0,1,1,23.87,32,8.14,8.14,0,0,1,32,23.87m0-3A11.18,11.18,0,1,0,43.18,32,11.18,11.18,0,0,0,32,20.82Z"/><text x="0" y="79" fill="#000000" font-size="5px" font-weight="bold" font-family="'Helvetica Neue', Helvetica, Arial-Unicode, Arial, Sans-serif">Created by Abdullah Al Noman</text><text x="0" y="84" fill="#000000" font-size="5px" font-weight="bold" font-family="'Helvetica Neue', Helvetica, Arial-Unicode, Arial, Sans-serif">from the Noun Project</text></svg>