<svg xmlns="http://www.w3.org/2000/svg" xmlns:xlink="http://www.w3.org/1999/xlink" version="1.1" x="0px" y="0px" viewBox="0 0 1024 1280" style="enable-background:new 0 0 1024 1024;" xml:space="preserve"><g><g><g><path d="M194.8,512.3c0-18.1,1.2-36.2,3.6-54.2c-0.4,2.7-0.7,5.3-1.1,8c4.8-35.7,14.4-70.6,28.4-103.8     c-1,2.4-2,4.8-3,7.2c7.9-18.7,17.2-36.7,27.9-54c5.3-8.6,10.9-17,16.8-25.2c1.5-2.1,3.1-4.2,4.7-6.3c0.7-0.9,1.5-2.4,2.4-3.1     c0.1-0.1-5,6.4-2.3,3c3.3-4.1,6.5-8.2,9.9-12.2c13-15.3,27.1-29.7,42.2-42.9c3.6-3.2,7.3-6.3,11-9.3c2-1.7,4.1-3.3,6.1-4.9     c3.5-2.8-3,2.4-3,2.3c1.1-1.2,2.8-2.2,4.2-3.2c8.1-6,16.4-11.8,24.8-17.2c19.3-12.3,39.7-23,60.8-31.9c-2.4,1-4.8,2-7.2,3     c32.8-13.7,67.3-23.1,102.6-27.9c-2.7,0.4-5.3,0.7-8,1.1c35.9-4.7,72.4-4.7,108.3,0c-2.7-0.4-5.3-0.7-8-1.1     c35.7,4.8,70.6,14.4,103.8,28.4c-2.4-1-4.8-2-7.2-3c18.7,7.9,36.7,17.2,54,27.9c8.6,5.3,17,10.9,25.1,16.8     c1.9,1.4,3.9,2.8,5.8,4.3c0.9,0.7,1.7,1.3,2.6,2c4.3,3.2-6.1-4.8-1.9-1.5c4.1,3.3,8.2,6.5,12.2,9.9c15.3,13,29.7,27.1,42.9,42.2     c3.2,3.6,6.3,7.3,9.3,11c1.4,1.7,2.7,3.4,4.1,5.1c1.4,1.7,4.5,6-1.5-1.9c0.8,1,1.6,2.1,2.4,3.1c6.1,8,11.8,16.3,17.3,24.8     c12.4,19.3,23.1,39.6,32.1,60.7c-1-2.4-2-4.8-3-7.2c14,33.2,23.5,68.1,28.4,103.8c-0.4-2.7-0.7-5.3-1.1-8     c4.7,35.9,4.7,72.4,0,108.3c0.4-2.7,0.7-5.3,1.1-8C937.5,593.9,928,628.8,914,662c1-2.4,2-4.8,3-7.2c-7.9,18.7-17.2,36.7-27.9,54     c-5.3,8.6-10.9,17-16.8,25.1c-1.4,1.9-2.8,3.9-4.3,5.8c-0.7,0.9-1.3,1.7-2,2.6c-3.2,4.3,4.8-6.1,1.5-1.9     c-3.3,4.1-6.5,8.2-9.9,12.2c-13,15.3-27.1,29.7-42.2,42.9c-3.6,3.2-7.3,6.3-11,9.3c-1.7,1.4-3.4,2.7-5.1,4.1     c-1.7,1.4-6,4.5,1.9-1.5c-1,0.8-2.1,1.6-3.1,2.4c-8,6.1-16.3,11.8-24.8,17.3c-19.3,12.4-39.6,23.1-60.7,32.1c2.4-1,4.8-2,7.2-3     c-33.2,14-68.1,23.5-103.8,28.4c2.7-0.4,5.3-0.7,8-1.1c-36.3,4.8-73.1,4.7-109.4-0.1c2.7,0.4,5.3,0.7,8,1.1     c-35-4.8-69.2-14.1-101.7-27.8c2.4,1,4.8,2,7.2,3c-25.3-10.7-49.6-23.9-72.3-39.5c-5.5-3.8-10.9-7.8-16.3-11.8     c-2.9-2.2,5.4,4.2,2.5,2c-0.6-0.5-1.2-0.9-1.8-1.4c-1.2-0.9-2.3-1.9-3.5-2.8c-2.9-2.3-5.8-4.7-8.6-7.1     c-10.4-8.8-20.3-18.2-29.7-28.1c-5.1-5.4-10.1-10.9-15-16.5c-2.6-3-5.1-6.1-7.6-9.1c-1.1-1.4-2.2-2.7-3.2-4.1     c-0.8-1-3-3.8,0.1,0.1c3.4,4.4,0.2,0.2-0.4-0.5c-4.9-6.5-9.8-11.5-17.9-13.8c-7.2-2-16.7-1.1-23.1,3c-6.4,4.1-12,10.3-13.8,17.9     c-1.7,7.3-1.7,16.8,3,23.1c27.6,36.4,59.4,68,96.5,94.8c35.3,25.6,74.9,45.4,116.3,59.2c80.7,26.9,170,28.9,252,6.4     c74.1-20.3,142.8-61,196.3-116.1c53.9-55.5,93.2-125.7,111.2-201.1c18.6-77.8,15.8-161-9.2-237.1     c-24-73.1-67.4-139.9-125.2-190.8C800.1,135.3,728.6,99,652.2,84.9c-78.6-14.6-161.2-8.7-236,20.2     c-71.8,27.7-136.5,73.3-184.5,133.7c-48.7,61.1-81.6,133.7-92.2,211.4c-2.8,20.7-4.6,41.3-4.7,62.1c0,15.7,13.8,30.7,30,30     C181.1,541.6,194.8,529.1,194.8,512.3L194.8,512.3z"/></g></g><g><g><path d="M348.9,373.8c-22.8,12.7-45.7,25.4-68.5,38.2c-36.2,20.2-72.5,40.4-108.7,60.6c-8.3,4.6-16.7,9.3-25,13.9     c13.7,3.6,27.4,7.2,41,10.8c-12.7-22.8-25.4-45.7-38.2-68.5C129.4,392.5,109.2,356.2,89,320c-4.6-8.3-9.3-16.7-13.9-25     c-7.6-13.7-27.6-19.4-41-10.8c-13.9,9-18.9,26.4-10.8,41C36,348.1,48.7,371,61.4,393.8c20.2,36.2,40.4,72.4,60.5,108.7     c4.6,8.3,9.3,16.7,13.9,25c8,14.4,27.1,18.5,41,10.8c22.8-12.7,45.7-25.4,68.5-38.2c36.2-20.2,72.5-40.4,108.7-60.6     c8.3-4.6,16.7-9.3,25-13.9c13.7-7.6,19.4-27.6,10.8-41C380.9,370.6,363.5,365.6,348.9,373.8L348.9,373.8z"/></g></g><g><g><path d="M539.8,278.7c0,28.8,0,57.6,0,86.5c0,42.7,0,85.4,0,128.1c0,5.1,0,10.3,0,15.4c0,9.2,2.5,17.8,9,24.8     c6.4,6.9,13.4,13.4,20.1,20.1c30.9,30.9,61.8,61.8,92.7,92.7c22.6,22.6,44.9,45.5,67.8,67.8c0.4,0.4,0.8,0.8,1.1,1.1     c11.1,11.1,31.5,11.9,42.4,0c11-12,11.9-30.6,0-42.4c-20.5-20.5-41-41-61.5-61.5c-32.7-32.7-65.3-65.3-98-98     c-7.5-7.5-15-15-22.5-22.5c2.9,7.1,5.9,14.1,8.8,21.2c0-26.3,0-52.5,0-78.8c0-41.9,0-83.7,0-125.6c0-9.6,0-19.3,0-28.9     c0-15.7-13.8-30.7-30-30C553.6,249.4,539.8,261.9,539.8,278.7L539.8,278.7z"/></g></g></g><text x="0" y="1039" fill="#000000" font-size="5px" font-weight="bold" font-family="'Helvetica Neue', Helvetica, Arial-Unicode, Arial, Sans-serif">Created by shashank singh</text><text x="0" y="1044" fill="#000000" font-size="5px" font-weight="bold" font-family="'Helvetica Neue', Helvetica, Arial-Unicode, Arial, Sans-serif">from the Noun Project</text></svg>