<svg xmlns="http://www.w3.org/2000/svg" xmlns:xlink="http://www.w3.org/1999/xlink" version="1.1" x="0px" y="0px" viewBox="0 0 32 40" enable-background="new 0 0 32 32" xml:space="preserve"><path d="M21.709,21.188c-1.792-0.237-2.912-1.331-4.358-2.886c-0.697-0.752-1.428-1.582-2.324-2.319  c1.396-1.165,2.412-2.52,3.483-3.503c1.011-0.921,1.901-1.52,3.199-1.688v2.574l7.556-4.363L21.709,4.64v2.652  c-3.341,0.266-5.45,2.378-6.935,4.013c-0.818,0.896-1.537,1.692-2.212,2.192c-0.685,0.501-1.227,0.73-2.013,0.742  c-0.001,0-0.002,0-0.003,0H2.734v3.5h0.001v0.001c0,0,0.046-0.001,0.137-0.001h7.677c0.786,0.011,1.33,0.241,2.017,0.743  c1.021,0.742,2.095,2.181,3.552,3.568c1.312,1.258,3.163,2.459,5.593,2.646v2.664l7.556-4.356l-7.556-4.361L21.709,21.188  L21.709,21.188z"/><text x="0" y="47" fill="#000000" font-size="5px" font-weight="bold" font-family="'Helvetica Neue', Helvetica, Arial-Unicode, Arial, Sans-serif">Created by Dmitry Baranovskiy</text><text x="0" y="52" fill="#000000" font-size="5px" font-weight="bold" font-family="'Helvetica Neue', Helvetica, Arial-Unicode, Arial, Sans-serif">from the Noun Project</text></svg>