<svg xmlns="http://www.w3.org/2000/svg" xmlns:xlink="http://www.w3.org/1999/xlink" viewBox="0 0 280.7 280.01"><defs><style>.cls-1{fill:#6ec197;}.cls-2{opacity:0.54;fill:url(#무제_그라디언트_119);}.cls-3{fill:#fff;}</style><linearGradient id="무제_그라디언트_119" x1="7.19" y1="62.21" x2="274.3" y2="216.43" gradientUnits="userSpaceOnUse"><stop offset="0" stop-color="#fff"/><stop offset="1" stop-color="#4e67b0"/></linearGradient></defs><g id="레이어_2" data-name="레이어 2"><g id="레이어_1-2" data-name="레이어 1"><ellipse class="cls-1" cx="140.35" cy="140" rx="140.35" ry="140"/><ellipse class="cls-2" cx="140.35" cy="140" rx="140.35" ry="140"/><path class="cls-3" d="M140.35,7.81c36,0,69.94,0,93.84,16.47,26.39,18.18,38.68,55,38.68,115.72s-12.29,97.54-38.68,115.72c-23.9,16.48-57.88,16.48-93.84,16.48-37.3,0-70.11-1.38-93.83-18.35-12.66-9-21.9-21.9-28.26-39.3C11.24,195.33,7.83,171,7.83,140c0-60.76,12.29-97.54,38.67-115.72C70.41,7.81,104.38,7.81,140.35,7.81m0-1C66.61,6.81,6.83,6.81,6.83,140c0,128.18,59.78,133.2,133.52,133.2s133.52,0,133.52-133.2S214.09,6.81,140.35,6.81Z"/><g id="second"><g id="후론트"><path class="cls-3" d="M129.35,108.93h0a8.43,8.43,0,0,0-1.45-1.15,7,7,0,0,0-3.6-1.09,6.47,6.47,0,0,0-6.22,6.18c0,3.11,2.93,6.12,6.68,6.83a6.6,6.6,0,0,0,1.66.07,3.74,3.74,0,0,0,2.22-1,6.79,6.79,0,0,0,2.28-4.73c0-.22,0-.43,0-.62a6.62,6.62,0,0,0-.61-3.2A4.54,4.54,0,0,0,129.35,108.93Z"/><path class="cls-3" d="M125,145.05c-4.37,7.79-11.72,15.46-17.37,15.46-1.55,0-2.11-1-2.11-2.86a17,17,0,0,1,2-6.88c2.4-4.58,8.9-13.17,11.58-18.09,3.68-5.73,2.55-10.66-.14-13-1.83-1.71-3.53-1.48-5.65.81C108,126.49,99,139.78,95.47,147.8a21.51,21.51,0,0,0-1.7,7.56c0,5.72,3.82,9.73,12.43,9.73,8.33,0,18.08-4.81,22.32-12,1.83-3,2-5.85.7-7.79S126.11,143,125,145.05Z"/><path class="cls-3" d="M38.55,146.65c5.37-12,16-28.63,25.85-40.89-5-.57-7.63-3.09-8.76-4.93-.85-1.6-.14-2.63,2.68-2.74,8.62-.46,21.05-6,31.92-6.76,9.89-.69,18.5,3.55,18.5,16.72,0,4-2.54,8.71-6.07,12.37-3.53,3.9-11.3,9.39-20.48,13.06,4.24,2.06,7.63,5.73,7.63,10.19,0,3.21-1.56,7-5.51,10.31-5.79,5.16-17.23,9.28-25.14,10.77a37.25,37.25,0,0,1-5.93.46,17.75,17.75,0,0,1-6.64-1.15c-5.93-2.29-10.17-6.87-10.17-10.54A20.14,20.14,0,0,1,38.55,146.65Zm41.38-5.73c0-2.06-2.54-3.89-8.9-4.35-5.36.92-10.73,1.15-13.69.46a106.15,106.15,0,0,0-8.9,16.49c-1.27,3.21-.14,4.36,2.82,4,8.19-.8,19.92-5.38,25.71-11.22C78.8,144.47,79.93,142.53,79.93,140.92ZM62.42,129c23.16-5,37.85-17.29,37.71-25,0-2.4-2.4-3.89-4.8-3.89-3.82,0-9.61,1.72-18.79,4.24.14,2.52-.84,5.84-4.23,11C70.75,117.79,68.78,120.54,62.42,129Z"/><path class="cls-3" d="M92.24,92.26c13.49,0,15.5,9.89,15.5,15.79,0,3.49-2.22,8-5.81,11.7-3.38,3.72-10.9,9.12-20.11,12.8l-2.1.84,2,1c4.43,2.15,7.07,5.63,7.07,9.29,0,2-.67,5.78-5.17,9.56-5.51,4.91-16.58,9-24.65,10.53a36.58,36.58,0,0,1-5.76.45A16.91,16.91,0,0,1,47,163.13c-6-2.31-9.53-6.69-9.53-9.61a19,19,0,0,1,2-6.46c5.25-11.78,15.58-28.12,25.71-40.67L66.31,105l-1.8-.21c-5.08-.59-7.28-3.27-8-4.43-.23-.44-.22-.67-.19-.74s.28-.44,2.06-.52c4.27-.22,9.36-1.63,14.76-3.12,5.73-1.59,11.65-3.23,17.17-3.63.65,0,1.3-.07,1.93-.07M60,130.56l2.62-.57c23.22-5.05,38.65-17.51,38.5-25.95,0-3.06-2.95-4.89-5.8-4.89-3.56,0-8.65,1.4-16.34,3.52l-2.71.75-.78.22,0,.8c.15,2.64-1.14,5.94-4.07,10.4-1.62,2.5-3.74,5.42-9.85,13.57L60,130.56m1.81,5.87a20.31,20.31,0,0,1-4.26-.37l-.69-.17-.38.61c-4.43,7-7.29,12.34-9,16.65-.74,1.87-.78,3.24-.12,4.2a3.3,3.3,0,0,0,2.94,1.24,9.43,9.43,0,0,0,1-.06c8.11-.8,20.17-5.32,26.31-11.51,2.1-2.1,3.26-4.27,3.26-6.1s-1.27-4.73-9.82-5.35H71l-.12,0a56.41,56.41,0,0,1-9.05.84M92.24,91.26c-.66,0-1.33,0-2,.07-10.87.8-23.3,6.3-31.92,6.76-2.82.11-3.53,1.14-2.68,2.74,1.13,1.84,3.81,4.36,8.76,4.93C54.51,118,43.92,134.62,38.55,146.65a20.14,20.14,0,0,0-2.12,6.87c0,3.67,4.24,8.25,10.17,10.54a17.75,17.75,0,0,0,6.64,1.15,37.25,37.25,0,0,0,5.93-.46c7.91-1.49,19.35-5.61,25.14-10.77,4-3.32,5.51-7.1,5.51-10.31,0-4.46-3.39-8.13-7.63-10.19,9.18-3.67,17-9.16,20.48-13.06,3.53-3.66,6.07-8.36,6.07-12.37,0-12.28-7.48-16.79-16.5-16.79ZM62.42,129c6.36-8.47,8.33-11.22,9.89-13.63,3.39-5.15,4.37-8.47,4.23-11,9.18-2.52,15-4.24,18.79-4.24,2.4,0,4.8,1.49,4.8,3.89.14,7.68-14.55,19.93-37.71,25Zm-.6,8.42a56,56,0,0,0,9.21-.86c6.36.46,8.9,2.29,8.9,4.35,0,1.61-1.13,3.55-3,5.39-5.79,5.84-17.52,10.42-25.71,11.22a7.75,7.75,0,0,1-.93.06c-2.26,0-3-1.22-1.89-4.07A106.15,106.15,0,0,1,57.34,137a20.79,20.79,0,0,0,4.48.4Z"/><path class="cls-3" d="M171.45,106.79c-4.38,13.63-19.77,27.15-32.2,33.91-2.82,5.84-4.66,11-4.66,15,0,2.75.85,4.7,2.68,4.7,6.5,0,14.69-7.68,20.06-15.93,1.83-2.86,4.94-2.86,5.93.12.56,1.72.42,4.35-1.41,7.44-2.12,3.44-12.57,12.83-24.44,12.83-8.61,0-14-4-14-11.91a22.4,22.4,0,0,1,1-6.53c5.51-19,21.47-40.2,35.31-52,2.68-2.18,5.22-2.86,7.91-.8A10.39,10.39,0,0,1,172.3,102,12.52,12.52,0,0,1,171.45,106.79Zm-16.1,9c-3.67,5-9.89,13.63-10.88,15.58a76.29,76.29,0,0,0,14.13-14.55c4.8-6.53,6.64-11.57,5.79-12C163.82,104.61,160.15,109.08,155.35,115.84Z"/><path class="cls-3" d="M164.35,93.38h0a4.38,4.38,0,0,1,2.71,1.06A9.39,9.39,0,0,1,171.3,102a11.79,11.79,0,0,1-.8,4.51c-2,6.09-6.4,12.71-12.84,19.12a87,87,0,0,1-18.89,14.21l-.28.15-.14.29c-3.25,6.72-4.76,11.62-4.76,15.44,0,3.57,1.38,5.7,3.68,5.7,7.07,0,15.59-8.23,20.9-16.39a3.15,3.15,0,0,1,2.41-1.67c.78,0,1.39.56,1.73,1.56.28.85.71,3.2-1.31,6.61s-12.37,12.35-23.59,12.35c-8.37,0-13-3.87-13-10.91a21.66,21.66,0,0,1,.95-6.25c5.73-19.79,22.16-40.58,35-51.5a6.63,6.63,0,0,1,4-1.82M141.51,135l3.59-2.84a77.89,77.89,0,0,0,14.3-14.74c4-5.4,6.56-10.68,6.14-12.56a1.39,1.39,0,0,0-.68-.94l0,0-.06,0-.22-.08h-.2c-.55,0-1.69,0-9.8,11.41-6.61,9.07-10.2,14.21-11,15.71L141.51,135m22.84-42.66a7.59,7.59,0,0,0-4.62,2c-13.84,11.8-29.8,33-35.31,52a22.4,22.4,0,0,0-1,6.53c0,7.9,5.37,11.91,14,11.91,11.87,0,22.32-9.39,24.44-12.83,1.83-3.09,2-5.72,1.41-7.44a2.89,2.89,0,0,0-2.68-2.25,4.09,4.09,0,0,0-3.25,2.13c-5.37,8.25-13.56,15.93-20.06,15.93-1.83,0-2.68-2-2.68-4.7,0-4,1.84-9.16,4.66-15,12.43-6.76,27.82-20.28,32.2-33.91a12.52,12.52,0,0,0,.85-4.81,10.39,10.39,0,0,0-4.66-8.36,5.31,5.31,0,0,0-3.29-1.24Zm-19.88,39c1-1.95,7.21-10.54,10.88-15.58,4.68-6.59,8.29-11,9-11h0c.85.46-1,5.5-5.79,12a76.29,76.29,0,0,1-14.13,14.55Z"/><path class="cls-3" d="M203.93,106.79c-4.38,13.63-19.77,27.15-32.2,33.91-2.82,5.84-4.66,11-4.66,15,0,2.75.85,4.7,2.69,4.7,6.49,0,18.79-13.89,24.15-22.13,1.84-2.87.84,3.34,1.83,6.32.57,1.72.43,4.35-1.41,7.44-2.12,3.44-12.57,12.83-24.43,12.83-8.62,0-14-4-14-11.91a22.74,22.74,0,0,1,1-6.53c5.51-19,21.47-40.2,35.31-52,2.68-2.18,5.23-2.86,7.91-.8a10.36,10.36,0,0,1,4.66,8.36A12.52,12.52,0,0,1,203.93,106.79Zm-16.1,9c-3.67,5-9.88,13.63-10.87,15.58a76.51,76.51,0,0,0,14.12-14.55c4.8-6.53,6.64-11.57,5.79-12C196.31,104.61,192.63,109.08,187.83,115.84Z"/><path class="cls-3" d="M196.84,93.38h0a4.42,4.42,0,0,1,2.71,1.06,9.38,9.38,0,0,1,4.23,7.54,11.79,11.79,0,0,1-.8,4.51c-2,6.09-6.4,12.71-12.83,19.12a87,87,0,0,1-18.9,14.21L171,140l-.14.29c-3.25,6.72-4.76,11.62-4.76,15.44,0,3.57,1.38,5.7,3.69,5.7,7,0,19-13.67,24.41-21.71l0,.66a18.75,18.75,0,0,0,.59,4.55c.28.85.71,3.2-1.31,6.61s-12.37,12.35-23.58,12.35c-8.37,0-13-3.87-13-10.91a21.66,21.66,0,0,1,1-6.25c5.74-19.79,22.16-40.58,35-51.5a6.65,6.65,0,0,1,4-1.82M174,135l3.58-2.84a78.26,78.26,0,0,0,14.31-14.74c4-5.4,6.55-10.68,6.13-12.56a1.38,1.38,0,0,0-.67-.94l0,0-.05,0-.23-.08h-.2c-.54,0-1.68,0-9.8,11.41-6.61,9.07-10.19,14.21-11,15.71L174,135m22.84-42.66a7.61,7.61,0,0,0-4.63,2c-13.84,11.8-29.8,33-35.31,52a22.74,22.74,0,0,0-1,6.53c0,7.9,5.37,11.91,14,11.91,11.86,0,22.31-9.39,24.43-12.83,1.84-3.09,2-5.72,1.41-7.44-.81-2.44-.28-7.06-1.08-7.06-.18,0-.42.22-.75.74-5.36,8.24-17.66,22.13-24.15,22.13-1.84,0-2.69-2-2.69-4.7,0-4,1.84-9.16,4.66-15,12.43-6.76,27.82-20.28,32.2-33.91a12.52,12.52,0,0,0,.85-4.81,10.36,10.36,0,0,0-4.66-8.36,5.29,5.29,0,0,0-3.28-1.24Zm-19.88,39c1-1.95,7.2-10.54,10.87-15.58,4.69-6.59,8.3-11,9-11h.05c.85.46-1,5.5-5.79,12A76.51,76.51,0,0,1,177,131.42Z"/><path class="cls-3" d="M250.4,144c-5.65,7-15,11.22-26.55,15.12-7.77,15.12-17.37,33.44-29.66,37.22-3.25,1-6.22,1-9.61-2.63-2.11-2.41-4.23-5.84-4.23-9.51a15.15,15.15,0,0,1,1.27-5.38c4.38-9.85,15.82-16.84,29.52-21.31l2.11-4a21.79,21.79,0,0,1-11.58,3.21c-7.06,0-10.17-4.35-10.17-9.16a20,20,0,0,1,1.84-8A121.22,121.22,0,0,1,212.27,111c1.83-2,3.95-2.06,5.5-.23,1.42,1.6,2.69,3.67,2.69,5.5,0,2.86-1.7,6.18-5,10.42a92.6,92.6,0,0,0-10.45,16.27c-2,4.12-3.25,8.7.43,8.7s10-6.76,16.94-16.26c9.47-12.95,13.28-19.93,16.67-24.06,2-2.06,3.81-2.29,5.37-1a6.66,6.66,0,0,1,2.68,5.84,14.17,14.17,0,0,1-2.54,7.68c-4.1,6.41-11.44,17.52-17.23,28.4A68.47,68.47,0,0,0,247.86,137c1.83-2.06,3.95-2.29,4.51-.8C253.08,138,252.8,141,250.4,144ZM192.92,178.1c-3.53,5.38-4.52,10.08-3.11,11.11,1,.69,3.95-2.63,7.91-8.25a178.53,178.53,0,0,0,9.74-16A42,42,0,0,0,192.92,178.1Z"/><path class="cls-3" d="M215.26,110.44a2.34,2.34,0,0,1,1.76,1c1.55,1.76,2.44,3.52,2.44,4.84,0,2.48-1.51,5.6-4.74,9.81a93.93,93.93,0,0,0-10.56,16.44c-2,4.26-2.53,7.13-1.49,8.78a3.09,3.09,0,0,0,2.82,1.36c3.72,0,9.7-5.61,17.75-16.67,5.13-7,8.67-12.39,11.25-16.3,2.23-3.38,3.84-5.83,5.36-7.68a4,4,0,0,1,2.6-1.47,2.18,2.18,0,0,1,1.39.55,5.66,5.66,0,0,1,2.31,5.06,13.13,13.13,0,0,1-2.39,7.14c-.56.89-1.19,1.86-1.87,2.92-4.14,6.43-10.39,16.14-15.4,25.55L225,154.48l2.78-1.37a70,70,0,0,0,20.78-15.46,3.6,3.6,0,0,1,2.34-1.43.45.45,0,0,1,.5.32c.55,1.42.4,4.05-1.82,6.8-5.88,7.27-16,11.41-26.09,14.8l-.39.13-.18.36c-7.16,13.93-17,33-29.07,36.73a10,10,0,0,1-3,.54c-2,0-3.73-.92-5.55-2.88-1.48-1.69-4-5.09-4-8.85a14.6,14.6,0,0,1,1.18-5c4.87-10.95,18.41-17.33,28.92-20.76l.38-.12L212,158l2.12-4,1.66-3.13-3.06,1.8a20.8,20.8,0,0,1-11.07,3.07c-4.43,0-9.17-2.14-9.17-8.16a19.15,19.15,0,0,1,1.75-7.61A119.7,119.7,0,0,1,213,111.67a3.31,3.31,0,0,1,2.27-1.23M190.11,190.3c.73,0,2.25,0,8.43-8.76a178.94,178.94,0,0,0,9.8-16.13l1.67-3-3,1.7a43.33,43.33,0,0,0-14.9,13.49c-3.21,4.89-5.22,10.75-2.84,12.48a1.47,1.47,0,0,0,.87.27m25.15-80.86a4.21,4.21,0,0,0-3,1.54,121.22,121.22,0,0,0-18.93,28.52,20,20,0,0,0-1.84,8c0,4.81,3.11,9.16,10.17,9.16a21.79,21.79,0,0,0,11.58-3.21l-2.11,4c-13.7,4.47-25.14,11.46-29.52,21.31a15.15,15.15,0,0,0-1.27,5.38c0,3.67,2.12,7.1,4.23,9.51s4.25,3.22,6.3,3.22a10.91,10.91,0,0,0,3.31-.59c12.29-3.78,21.89-22.1,29.66-37.22,11.58-3.9,20.9-8.14,26.55-15.12,2.4-3,2.68-6,2-7.79a1.43,1.43,0,0,0-1.43-1,4.52,4.52,0,0,0-3.08,1.76,68.47,68.47,0,0,1-20.48,15.23c5.79-10.88,13.13-22,17.23-28.4a14.17,14.17,0,0,0,2.54-7.68,6.66,6.66,0,0,0-2.68-5.84,3.18,3.18,0,0,0-2-.77,4.89,4.89,0,0,0-3.35,1.8c-3.39,4.13-7.2,11.11-16.67,24.06-6.92,9.5-13.27,16.26-16.94,16.26s-2.4-4.58-.43-8.7a92.6,92.6,0,0,1,10.45-16.27c3.25-4.24,5-7.56,5-10.42,0-1.83-1.27-3.9-2.69-5.5a3.31,3.31,0,0,0-2.51-1.31Zm-7.8,55.49a178.53,178.53,0,0,1-9.74,16c-3.61,5.13-6.4,8.34-7.61,8.34a.53.53,0,0,1-.3-.09c-1.41-1-.42-5.73,3.11-11.11a42,42,0,0,1,14.54-13.17Z"/></g></g></g></g></svg>